<?xml version="1.0" encoding="UTF-8" standalone="no" ?>
<!DOCTYPE svg PUBLIC "-//W3C//DTD SVG 1.1//EN" "http://www.w3.org/Graphics/SVG/1.1/DTD/svg11.dtd">
<svg xmlns="http://www.w3.org/2000/svg" xmlns:xlink="http://www.w3.org/1999/xlink" version="1.1" width="185.88501297458868" height="66.82925055835034" viewBox="345.6495737391057 223.41036561892477 185.88501297458868 66.82925055835034" xml:space="preserve">
<desc>Created with Fabric.js 5.3.0</desc>
<defs>
</defs>
<g transform="matrix(4.5617237642 0 0 4.5617235876 421.8851012864 256.8249908981)" id="MvzEqnIO5JSUFz-Kdr_ht"  >
<path style="stroke: none; stroke-width: 1; stroke-dasharray: none; stroke-linecap: butt; stroke-dashoffset: 0; stroke-linejoin: miter; stroke-miterlimit: 4; fill: rgb(255,255,255); fill-rule: nonzero; opacity: 1;"  transform=" translate(0, 0)" d="M -14.966 6.825 L -14.966 6.825 C -15.386 6.825 -15.69633 6.736330000000001 -15.896999999999998 6.559 C -16.097669999999997 6.38167 -16.202669999999998 6.204330000000001 -16.212 6.027 L -16.212 6.027 C -16.09067 5.64433 -15.81533 5.453 -15.386 5.453 L -15.386 5.453 C -15.19933 5.453 -15.021999999999998 5.488 -14.854 5.558000000000001 C -14.686 5.628000000000001 -14.51333 5.7330000000000005 -14.335999999999999 5.873000000000001 L -14.335999999999999 5.873000000000001 L -14.014 6.111000000000001 C -13.91133 6.008330000000001 -13.83667 5.8823300000000005 -13.79 5.7330000000000005 L -13.79 5.7330000000000005 C -13.677999999999999 5.434330000000001 -13.600999999999999 4.984000000000001 -13.559 4.382000000000001 C -13.517 3.7800000000000007 -13.495999999999999 2.9563300000000003 -13.495999999999999 1.9110000000000005 L -13.495999999999999 1.9110000000000005 L -13.495999999999999 -0.25899999999999945 C -13.495999999999999 -0.6416699999999995 -13.49833 -0.9613299999999995 -13.502999999999998 -1.2179999999999995 C -13.50767 -1.4746699999999995 -13.519329999999998 -1.7429999999999994 -13.537999999999998 -2.0229999999999997 L -13.537999999999998 -2.0229999999999997 L -14.643999999999998 -2.1489999999999996 L -14.643999999999998 -2.6389999999999993 L -12.529999999999998 -3.4929999999999994 L -12.319999999999997 -3.3529999999999993 L -12.361999999999997 -1.4489999999999994 L -12.361999999999997 1.9390000000000005 C -12.361999999999997 2.6950000000000003 -12.380669999999997 3.3343300000000005 -12.417999999999996 3.857 C -12.455329999999996 4.37967 -12.536999999999995 4.816 -12.662999999999995 5.166 C -12.788999999999994 5.516 -12.977999999999994 5.817 -13.229999999999995 6.069000000000001 L -13.229999999999995 6.069000000000001 C -13.472669999999995 6.311670000000001 -13.719999999999995 6.498330000000001 -13.971999999999994 6.629000000000001 C -14.223999999999995 6.759670000000002 -14.555329999999994 6.825000000000001 -14.965999999999994 6.825000000000001 z M -12.922 -5.033 L -12.922 -5.033 C -13.18333 -5.033 -13.405000000000001 -5.117 -13.587 -5.285 C -13.769 -5.453 -13.86 -5.66767 -13.86 -5.929 L -13.86 -5.929 C -13.86 -6.19967 -13.769 -6.41667 -13.587 -6.58 C -13.405 -6.74333 -13.18333 -6.825 -12.922 -6.825 L -12.922 -6.825 C -12.65133 -6.825 -12.425 -6.74333 -12.243 -6.58 C -12.061 -6.41667 -11.97 -6.19967 -11.97 -5.929 L -11.97 -5.929 C -11.97 -5.66767 -12.061 -5.453 -12.243 -5.285 C -12.425 -5.117 -12.65133 -5.033 -12.922 -5.033 z M -8.05 3.521 L -8.05 3.521 C -8.619330000000001 3.521 -9.06733 3.332 -9.394 2.9539999999999997 C -9.72067 2.5759999999999996 -9.87933 1.9249999999999998 -9.870000000000001 1.0009999999999997 L -9.870000000000001 1.0009999999999997 L -9.828000000000001 -2.4850000000000003 L -10.822000000000001 -2.6950000000000003 L -10.822000000000001 -3.1990000000000003 L -8.764000000000001 -3.3950000000000005 L -8.624 -3.2550000000000003 L -8.694 -1.2950000000000004 L -8.694 0.8749999999999996 C -8.694 1.4816699999999996 -8.600670000000001 1.9086699999999996 -8.414000000000001 2.1559999999999997 C -8.227330000000002 2.4033299999999995 -7.947330000000002 2.5269999999999997 -7.574000000000002 2.5269999999999997 L -7.574000000000002 2.5269999999999997 C -6.920670000000001 2.5269999999999997 -6.267330000000001 2.22367 -5.614000000000002 1.6169999999999995 L -5.614000000000002 1.6169999999999995 L -5.572000000000002 -2.499 L -6.566000000000002 -2.6950000000000003 L -6.566000000000002 -3.1990000000000003 L -4.536000000000001 -3.3950000000000005 L -4.396000000000002 -3.2550000000000003 L -4.4380000000000015 -1.2950000000000004 L -4.4380000000000015 2.639 L -3.4860000000000015 2.835 L -3.4860000000000015 3.339 L -5.432000000000001 3.451 L -5.572000000000001 2.205 C -5.945330000000001 2.66233 -6.344330000000001 2.996 -6.769000000000001 3.206 C -7.193670000000001 3.416 -7.620670000000001 3.521 -8.05 3.521 z M -2.926 6.825 L -2.926 6.825 C -3.346 6.825 -3.65633 6.736330000000001 -3.857 6.559 C -4.05767 6.38167 -4.16267 6.204330000000001 -4.172000000000001 6.027 L -4.172000000000001 6.027 C -4.05067 5.64433 -3.7753300000000007 5.453 -3.3460000000000005 5.453 L -3.3460000000000005 5.453 C -3.1593300000000006 5.453 -2.9820000000000007 5.488 -2.8140000000000005 5.558000000000001 C -2.6460000000000004 5.628000000000001 -2.4733300000000007 5.7330000000000005 -2.2960000000000003 5.873000000000001 L -2.2960000000000003 5.873000000000001 L -1.9740000000000002 6.111000000000001 C -1.8713300000000002 6.008330000000001 -1.7966700000000002 5.8823300000000005 -1.7500000000000002 5.7330000000000005 L -1.7500000000000002 5.7330000000000005 C -1.6380000000000001 5.434330000000001 -1.5610000000000002 4.984000000000001 -1.5190000000000001 4.382000000000001 C -1.477 3.7800000000000007 -1.4560000000000002 2.9563300000000003 -1.4560000000000002 1.9110000000000005 L -1.4560000000000002 1.9110000000000005 L -1.4560000000000002 -0.25899999999999945 C -1.4560000000000002 -0.6416699999999995 -1.4583300000000001 -0.9613299999999995 -1.463 -1.2179999999999995 C -1.46767 -1.4746699999999995 -1.47933 -1.7429999999999994 -1.498 -2.0229999999999997 L -1.498 -2.0229999999999997 L -2.604 -2.1489999999999996 L -2.604 -2.6389999999999993 L -0.4900000000000002 -3.4929999999999994 L -0.28000000000000025 -3.3529999999999993 L -0.32200000000000023 -1.4489999999999994 L -0.32200000000000023 1.9390000000000005 C -0.32200000000000023 2.6950000000000003 -0.34067000000000025 3.3343300000000005 -0.3780000000000002 3.857 C -0.4153300000000002 4.37967 -0.4970000000000002 4.816 -0.6230000000000002 5.166 C -0.7490000000000002 5.516 -0.9380000000000002 5.817 -1.1900000000000002 6.069000000000001 L -1.1900000000000002 6.069000000000001 C -1.43267 6.311670000000001 -1.6800000000000002 6.498330000000001 -1.9320000000000002 6.629000000000001 C -2.184 6.759670000000002 -2.51533 6.825000000000001 -2.926 6.825000000000001 z M -0.882 -5.033 L -0.882 -5.033 C -1.14333 -5.033 -1.365 -5.117 -1.5470000000000002 -5.285 C -1.729 -5.453 -1.8200000000000003 -5.66767 -1.8200000000000003 -5.929 L -1.8200000000000003 -5.929 C -1.8200000000000003 -6.19967 -1.7290000000000003 -6.41667 -1.5470000000000002 -6.58 C -1.3650000000000002 -6.74333 -1.1433300000000002 -6.825 -0.8820000000000001 -6.825 L -0.8820000000000001 -6.825 C -0.6113300000000002 -6.825 -0.3850000000000001 -6.74333 -0.20300000000000007 -6.58 C -0.021000000000000074 -6.41667 0.06999999999999995 -6.19967 0.06999999999999995 -5.929 L 0.06999999999999995 -5.929 C 0.06999999999999995 -5.66767 -0.021000000000000046 -5.453 -0.20300000000000007 -5.285 C -0.38500000000000006 -5.117 -0.6113300000000002 -5.033 -0.8820000000000001 -5.033 z M 4.606 3.339 L 1.3579999999999997 3.339 L 1.3579999999999997 2.835 L 2.4079999999999995 2.639 C 2.4173299999999993 2.2843299999999997 2.4243299999999994 1.8993299999999997 2.4289999999999994 1.4839999999999998 C 2.4336699999999993 1.0686699999999998 2.4359999999999995 0.7069999999999997 2.4359999999999995 0.3989999999999998 L 2.4359999999999995 0.3989999999999998 L 2.4359999999999995 -0.25900000000000023 C 2.4359999999999995 -0.6416700000000002 2.4336699999999993 -0.9613300000000002 2.4289999999999994 -1.2180000000000002 C 2.4243299999999994 -1.4746700000000001 2.4126699999999994 -1.7430000000000003 2.3939999999999992 -2.023 L 2.3939999999999992 -2.023 L 1.2739999999999991 -2.149 L 1.2739999999999991 -2.6390000000000002 L 3.4299999999999993 -3.4930000000000003 L 3.6399999999999992 -3.353 L 3.5979999999999994 -1.4490000000000003 L 3.5979999999999994 0.3989999999999998 C 3.5979999999999994 0.7069999999999999 3.6003299999999996 1.0686699999999998 3.6049999999999995 1.4839999999999998 C 3.6096699999999995 1.8993299999999997 3.6166699999999996 2.2843299999999997 3.6259999999999994 2.639 L 3.6259999999999994 2.639 L 4.606 2.835 z M 3.01 -5.033 L 3.01 -5.033 C 2.7486699999999997 -5.033 2.5269999999999997 -5.117 2.3449999999999998 -5.285 C 2.163 -5.453 2.0719999999999996 -5.66767 2.0719999999999996 -5.929 L 2.0719999999999996 -5.929 C 2.0719999999999996 -6.19967 2.163 -6.41667 2.3449999999999998 -6.58 C 2.5269999999999997 -6.74333 2.7486699999999997 -6.825 3.01 -6.825 L 3.01 -6.825 C 3.27133 -6.825 3.493 -6.74333 3.675 -6.58 C 3.8569999999999998 -6.41667 3.948 -6.19967 3.948 -5.929 L 3.948 -5.929 C 3.948 -5.66767 3.8569999999999998 -5.453 3.675 -5.285 C 3.493 -5.117 3.27133 -5.033 3.01 -5.033 z M 12.558 -0.833 L 12.558 -0.833 L 12.558 -0.2729999999999999 C 11.97 -0.1983299999999999 11.54533 -0.05366999999999991 11.283999999999999 0.1610000000000001 C 11.02267 0.37567000000000006 10.892 0.6603300000000001 10.892 1.0150000000000001 L 10.892 1.0150000000000001 C 10.892 1.2670000000000001 10.940999999999999 1.54 11.039 1.834 C 11.137 2.128 11.235 2.443 11.333 2.779 C 11.431000000000001 3.1149999999999998 11.48 3.479 11.48 3.871 L 11.48 3.871 C 11.48 4.42167 11.291 4.84167 10.913 5.131 C 10.535 5.42033 10.01467 5.565 9.352 5.565 L 9.352 5.565 L 8.722 5.565 L 8.722 5.005000000000001 L 9.1 4.963000000000001 C 9.585329999999999 4.907000000000001 9.933 4.802000000000001 10.142999999999999 4.648000000000001 C 10.353 4.494000000000001 10.457999999999998 4.216330000000001 10.457999999999998 3.8150000000000004 L 10.457999999999998 3.8150000000000004 C 10.457999999999998 3.2830000000000004 10.406669999999998 2.7790000000000004 10.303999999999998 2.3030000000000004 C 10.201329999999999 1.8270000000000004 10.149999999999999 1.4490000000000003 10.149999999999999 1.1690000000000005 L 10.149999999999999 1.1690000000000005 C 10.149999999999999 0.7210000000000005 10.252669999999998 0.34533000000000047 10.457999999999998 0.04200000000000048 C 10.663329999999998 -0.2613299999999995 10.99467 -0.45966999999999947 11.451999999999998 -0.5529999999999995 L 11.451999999999998 -0.5529999999999995 C 10.994669999999998 -0.6556699999999995 10.663329999999998 -0.8563299999999995 10.457999999999998 -1.1549999999999994 C 10.252669999999998 -1.4536699999999994 10.149999999999999 -1.8269999999999995 10.149999999999999 -2.2749999999999995 L 10.149999999999999 -2.2749999999999995 C 10.149999999999999 -2.5549999999999997 10.201329999999999 -2.9329999999999994 10.303999999999998 -3.4089999999999994 C 10.406669999999998 -3.8849999999999993 10.457999999999998 -4.388999999999999 10.457999999999998 -4.920999999999999 L 10.457999999999998 -4.920999999999999 C 10.457999999999998 -5.331669999999999 10.352999999999998 -5.611669999999999 10.142999999999999 -5.760999999999999 C 9.932999999999998 -5.910329999999999 9.585329999999999 -6.012999999999999 9.1 -6.068999999999999 L 9.1 -6.068999999999999 L 8.722 -6.110999999999999 L 8.722 -6.670999999999999 L 9.352 -6.670999999999999 C 10.01467 -6.670999999999999 10.535 -6.52633 10.913 -6.236999999999999 C 11.291 -5.94767 11.48 -5.527669999999999 11.48 -4.976999999999999 L 11.48 -4.976999999999999 C 11.48 -4.594329999999999 11.431000000000001 -4.23267 11.333 -3.8919999999999995 C 11.235 -3.5513299999999997 11.137 -3.2339999999999995 11.039 -2.9399999999999995 C 10.940999999999999 -2.6459999999999995 10.892 -2.3729999999999993 10.892 -2.1209999999999996 L 10.892 -2.1209999999999996 C 10.892 -1.7756699999999994 11.02267 -1.4933299999999996 11.283999999999999 -1.2739999999999996 C 11.545329999999998 -1.0546699999999996 11.969999999999999 -0.9076699999999995 12.558 -0.8329999999999995 z M 15.218 -1.561 L 15.218 -1.561 C 14.938 -1.561 14.70233 -1.659 14.511 -1.855 C 14.319669999999999 -2.051 14.223999999999998 -2.2843299999999997 14.223999999999998 -2.5549999999999997 L 14.223999999999998 -2.5549999999999997 C 14.223999999999998 -2.835 14.319669999999999 -3.0729999999999995 14.511 -3.2689999999999997 C 14.70233 -3.465 14.937999999999999 -3.5629999999999997 15.218 -3.5629999999999997 L 15.218 -3.5629999999999997 C 15.498 -3.5629999999999997 15.73367 -3.465 15.925 -3.2689999999999997 C 16.11633 -3.0729999999999995 16.212 -2.8349999999999995 16.212 -2.5549999999999997 L 16.212 -2.5549999999999997 C 16.212 -2.2843299999999997 16.11633 -2.0509999999999997 15.924999999999999 -1.8549999999999998 C 15.733669999999998 -1.6589999999999998 15.498 -1.5609999999999997 15.217999999999998 -1.5609999999999997 z M 16.1 2.933 L 16.1 2.933 C 16.1 3.493 15.967000000000002 4.011 15.701 4.487 C 15.435 4.963 15.09667 5.37133 14.686 5.712 C 14.27533 6.05267 13.846 6.3069999999999995 13.398 6.475 L 13.398 6.475 L 13.202 5.999 C 13.678 5.756329999999999 14.098 5.46233 14.462 5.117 C 14.826 4.77167 15.092 4.33767 15.26 3.815 L 15.26 3.815 L 14.741999999999999 3.409 C 14.55533 3.25967 14.42 3.09867 14.335999999999999 2.9259999999999997 C 14.251999999999999 2.7533299999999996 14.209999999999999 2.57833 14.209999999999999 2.401 L 14.209999999999999 2.401 C 14.209999999999999 2.15833 14.282329999999998 1.9506699999999997 14.427 1.7779999999999998 C 14.57167 1.60533 14.78867 1.5189999999999997 15.078 1.5189999999999997 L 15.078 1.5189999999999997 C 15.20867 1.5189999999999997 15.341669999999999 1.5469999999999997 15.477 1.6029999999999998 C 15.61233 1.6589999999999998 15.76867 1.7663299999999997 15.946 1.9249999999999998 L 15.946 1.9249999999999998 C 16.002 2.10233 16.04167 2.2726699999999997 16.065 2.436 C 16.088330000000003 2.59933 16.1 2.765 16.1 2.933 z" stroke-linecap="round" />
</g>
<g transform="matrix(1.282933245 0.1348417176 -0.081756886 0.7778648104 487.2264655753 260.6062873452)" id="mGgMoc7Dp7cvPNBbI31gi"  >
<path style="stroke: rgb(81,2,111); stroke-width: 0; stroke-dasharray: none; stroke-linecap: butt; stroke-dashoffset: 0; stroke-linejoin: miter; stroke-miterlimit: 4; fill: rgb(255,255,255); fill-rule: nonzero; opacity: 0.94;"  transform=" translate(0, 0)" d="M -32.46753 -32.46753 L 32.46753 -32.46753 L 32.46753 32.46753 L -32.46753 32.46753 z" stroke-linecap="round" />
</g>
<g transform="matrix(0.9945218954 0.1045284633 -0.1045284633 0.9945218954 487.7280339652 260.6590043073)" id="hZplw5ufY3mnlSiNMGJYi"  >
<path style="stroke: none; stroke-width: 1; stroke-dasharray: none; stroke-linecap: butt; stroke-dashoffset: 0; stroke-linejoin: miter; stroke-miterlimit: 4; fill: rgb(0,0,0); fill-rule: nonzero; opacity: 1;"  transform=" translate(-94.3355, -197.168)" d="M 72.011 213.14 L 63.53 213.14 L 63.53 211.985 L 66.17 211.523 Q 66.203 210.17 66.22 208.834 Q 66.236 207.497 66.236 206.177 L 66.236 206.177 L 66.236 196.739 Q 66.236 195.386 66.22 194.495 Q 66.203 193.604 66.137 192.614 L 66.137 192.614 L 63.53 192.317 L 63.53 191.162 L 68.15 189.149 L 68.645 189.479 L 68.843 191.624 Q 71.186 189.149 73.826 189.149 L 73.826 189.149 Q 75.608 189.149 77.027 190.139 Q 78.446 191.129 79.288 192.961 Q 80.129 194.792 80.129 197.366 L 80.129 197.366 Q 80.129 199.907 79.238 201.772 Q 78.347 203.636 76.813 204.659 Q 75.278 205.682 73.331 205.682 L 73.331 205.682 Q 72.209 205.682 71.104 205.22 Q 69.998 204.758 68.942 203.537 L 68.942 203.537 L 68.942 206.144 Q 68.942 207.464 68.959 208.801 Q 68.975 210.137 69.008 211.49 L 69.008 211.49 L 72.011 211.985 L 72.011 213.14 Z M 73.034 191.03 L 73.034 191.03 Q 72.275 191.03 71.285 191.41 Q 70.295 191.789 69.041 192.845 L 69.041 192.845 L 69.041 202.118 Q 69.965 203.009 70.856 203.405 Q 71.747 203.801 72.671 203.801 L 72.671 203.801 Q 74.519 203.801 75.839 202.316 Q 77.159 200.831 77.159 197.63 L 77.159 197.63 Q 77.159 194.462 76.004 192.746 Q 74.849 191.03 73.034 191.03 Z M 90.623 205.253 L 82.439 205.253 L 82.439 204.065 L 85.079 203.603 Q 85.112 202.25 85.129 200.947 Q 85.145 199.643 85.145 198.323 L 85.145 198.323 L 85.145 183.836 L 82.439 183.506 L 82.439 182.351 L 87.587 180.866 L 88.049 181.13 L 87.917 185.816 L 87.917 198.323 Q 87.917 199.643 87.934 200.963 Q 87.95 202.283 87.983 203.603 L 87.983 203.603 L 90.623 204.065 L 90.623 205.253 Z M 105.176 205.583 L 105.176 205.583 Q 103.988 205.583 103.196 204.89 Q 102.404 204.197 102.206 203.042 L 102.206 203.042 Q 100.853 204.362 99.83 205.022 Q 98.807 205.682 97.355 205.682 L 97.355 205.682 Q 95.54 205.682 94.237 204.643 Q 92.933 203.603 92.933 201.557 L 92.933 201.557 Q 92.933 200.6 93.379 199.775 Q 93.824 198.95 95.012 198.158 Q 96.2 197.366 98.411 196.574 L 98.411 196.574 Q 99.17 196.31 100.16 196.013 Q 101.15 195.716 102.14 195.485 L 102.14 195.485 L 102.14 194.66 Q 102.14 192.251 101.414 191.459 Q 100.688 190.667 99.038 190.667 L 99.038 190.667 Q 98.675 190.667 98.23 190.7 Q 97.784 190.733 97.256 190.865 L 97.256 190.865 L 96.629 193.01 Q 96.167 194.594 94.913 194.594 L 94.913 194.594 Q 93.527 194.594 93.362 193.241 L 93.362 193.241 Q 93.824 191.36 95.557 190.255 Q 97.289 189.149 99.797 189.149 L 99.797 189.149 Q 102.404 189.149 103.658 190.453 Q 104.912 191.756 104.912 194.891 L 104.912 194.891 L 104.912 201.92 Q 104.912 202.976 105.242 203.422 Q 105.572 203.867 106.1 203.867 L 106.1 203.867 Q 106.529 203.867 106.826 203.669 Q 107.123 203.471 107.387 203.141 L 107.387 203.141 L 108.047 203.867 Q 107.453 204.824 106.744 205.204 Q 106.034 205.583 105.176 205.583 Z M 95.87 201.062 L 95.87 201.062 Q 95.87 202.382 96.629 202.943 Q 97.388 203.504 98.51 203.504 L 98.51 203.504 Q 99.005 203.504 99.451 203.372 Q 99.896 203.24 100.523 202.861 Q 101.15 202.481 102.14 201.755 L 102.14 201.755 L 102.14 196.706 Q 101.282 196.937 100.457 197.218 Q 99.632 197.498 99.104 197.696 L 99.104 197.696 Q 97.685 198.257 96.992 198.851 Q 96.299 199.445 96.085 200.006 Q 95.87 200.567 95.87 201.062 Z M 121.577 191.162 L 118.706 190.766 L 118.706 189.578 L 125.141 189.578 L 125.141 190.766 L 123.359 191.129 L 118.046 205.154 Q 116.396 209.543 114.862 211.507 Q 113.327 213.47 111.281 213.47 L 111.281 213.47 Q 110.06 213.47 109.153 212.86 Q 108.245 212.249 108.245 211.292 L 108.245 211.292 Q 108.41 210.566 109.054 210.203 Q 109.697 209.84 110.456 209.84 L 110.456 209.84 Q 111.116 209.84 111.677 210.121 Q 112.238 210.401 112.898 211.094 L 112.898 211.094 L 113.063 211.259 Q 114.119 210.368 114.845 209.098 Q 115.571 207.827 116.033 206.507 L 116.033 206.507 L 116.165 206.111 L 110.192 191.03 L 108.377 190.766 L 108.377 189.578 L 116.297 189.578 L 116.297 190.799 L 113.393 191.129 L 117.518 202.382 L 121.577 191.162 Z" stroke-linecap="round" />
</g>
</svg>