<?xml version="1.0" encoding="UTF-8" standalone="no" ?>
<!DOCTYPE svg PUBLIC "-//W3C//DTD SVG 1.1//EN" "http://www.w3.org/Graphics/SVG/1.1/DTD/svg11.dtd">
<svg xmlns="http://www.w3.org/2000/svg" xmlns:xlink="http://www.w3.org/1999/xlink" version="1.1" width="25.270999999999958" height="13.843999999999994" viewBox="685.188 187.023 25.270999999999958 13.843999999999994" xml:space="preserve">
<desc>Created with Fabric.js 5.3.0</desc>
<defs>
</defs>
<g transform="matrix(1 0 0 1 697.8235 193.945)" id="hVrpRyaj6HfDohiGI8ylM"  >
<path style="stroke: none; stroke-width: 1; stroke-dasharray: none; stroke-linecap: butt; stroke-dashoffset: 0; stroke-linejoin: miter; stroke-miterlimit: 4; fill: rgb(255,255,255); fill-rule: nonzero; opacity: 1;"  transform=" translate(-697.8235, -193.945)" d="M 689.029 200.237 L 685.688 200.237 L 685.688 199.782 L 686.728 199.6 Q 686.741 199.067 686.747 198.54 Q 686.754 198.014 686.754 197.494 L 686.754 197.494 L 686.754 193.776 Q 686.754 193.243 686.747 192.892 Q 686.741 192.541 686.715 192.151 L 686.715 192.151 L 685.688 192.034 L 685.688 191.579 L 687.508 190.786 L 687.703 190.916 L 687.781 191.761 Q 688.704 190.786 689.744 190.786 L 689.744 190.786 Q 690.446 190.786 691.005 191.176 Q 691.564 191.566 691.895 192.287 Q 692.227 193.009 692.227 194.023 L 692.227 194.023 Q 692.227 195.024 691.876 195.758 Q 691.525 196.493 690.92 196.896 Q 690.316 197.299 689.549 197.299 L 689.549 197.299 Q 689.107 197.299 688.671 197.117 Q 688.236 196.935 687.82 196.454 L 687.82 196.454 L 687.82 197.481 Q 687.82 198.001 687.826 198.527 Q 687.833 199.054 687.846 199.587 L 687.846 199.587 L 689.029 199.782 L 689.029 200.237 Z M 689.432 191.527 L 689.432 191.527 Q 689.133 191.527 688.743 191.676 Q 688.353 191.826 687.859 192.242 L 687.859 192.242 L 687.859 195.895 Q 688.223 196.246 688.574 196.402 Q 688.925 196.558 689.289 196.558 L 689.289 196.558 Q 690.017 196.558 690.537 195.973 Q 691.057 195.388 691.057 194.127 L 691.057 194.127 Q 691.057 192.879 690.602 192.203 Q 690.147 191.527 689.432 191.527 Z M 696.361 197.13 L 693.137 197.13 L 693.137 196.662 L 694.177 196.48 Q 694.19 195.947 694.196 195.433 Q 694.203 194.92 694.203 194.4 L 694.203 194.4 L 694.203 188.693 L 693.137 188.563 L 693.137 188.108 L 695.165 187.523 L 695.347 187.627 L 695.295 189.473 L 695.295 194.4 Q 695.295 194.92 695.301 195.44 Q 695.308 195.96 695.321 196.48 L 695.321 196.48 L 696.361 196.662 L 696.361 197.13 Z M 702.094 197.26 L 702.094 197.26 Q 701.626 197.26 701.314 196.987 Q 701.002 196.714 700.924 196.259 L 700.924 196.259 Q 700.391 196.779 699.988 197.039 Q 699.585 197.299 699.013 197.299 L 699.013 197.299 Q 698.298 197.299 697.784 196.889 Q 697.271 196.48 697.271 195.674 L 697.271 195.674 Q 697.271 195.297 697.446 194.972 Q 697.622 194.647 698.09 194.335 Q 698.558 194.023 699.429 193.711 L 699.429 193.711 Q 699.728 193.607 700.118 193.49 Q 700.508 193.373 700.898 193.282 L 700.898 193.282 L 700.898 192.957 Q 700.898 192.008 700.612 191.696 Q 700.326 191.384 699.676 191.384 L 699.676 191.384 Q 699.533 191.384 699.357 191.397 Q 699.182 191.41 698.974 191.462 L 698.974 191.462 L 698.727 192.307 Q 698.545 192.931 698.051 192.931 L 698.051 192.931 Q 697.505 192.931 697.44 192.398 L 697.44 192.398 Q 697.622 191.657 698.304 191.221 Q 698.987 190.786 699.975 190.786 L 699.975 190.786 Q 701.002 190.786 701.496 191.299 Q 701.99 191.813 701.99 193.048 L 701.99 193.048 L 701.99 195.817 Q 701.99 196.233 702.12 196.408 Q 702.25 196.584 702.458 196.584 L 702.458 196.584 Q 702.627 196.584 702.744 196.506 Q 702.861 196.428 702.965 196.298 L 702.965 196.298 L 703.225 196.584 Q 702.991 196.961 702.711 197.11 Q 702.432 197.26 702.094 197.26 Z M 698.428 195.479 L 698.428 195.479 Q 698.428 195.999 698.727 196.22 Q 699.026 196.441 699.468 196.441 L 699.468 196.441 Q 699.663 196.441 699.838 196.389 Q 700.014 196.337 700.261 196.187 Q 700.508 196.038 700.898 195.752 L 700.898 195.752 L 700.898 193.763 Q 700.56 193.854 700.235 193.964 Q 699.91 194.075 699.702 194.153 L 699.702 194.153 Q 699.143 194.374 698.87 194.608 Q 698.597 194.842 698.512 195.063 Q 698.428 195.284 698.428 195.479 Z M 708.555 191.579 L 707.424 191.423 L 707.424 190.955 L 709.959 190.955 L 709.959 191.423 L 709.257 191.566 L 707.164 197.091 Q 706.514 198.82 705.909 199.593 Q 705.305 200.367 704.499 200.367 L 704.499 200.367 Q 704.018 200.367 703.66 200.126 Q 703.303 199.886 703.303 199.509 L 703.303 199.509 Q 703.368 199.223 703.621 199.08 Q 703.875 198.937 704.174 198.937 L 704.174 198.937 Q 704.434 198.937 704.655 199.047 Q 704.876 199.158 705.136 199.431 L 705.136 199.431 L 705.201 199.496 Q 705.617 199.145 705.903 198.644 Q 706.189 198.144 706.371 197.624 L 706.371 197.624 L 706.423 197.468 L 704.07 191.527 L 703.355 191.423 L 703.355 190.955 L 706.475 190.955 L 706.475 191.436 L 705.331 191.566 L 706.956 195.999 L 708.555 191.579 Z" stroke-linecap="round" />
</g>
</svg>